<svg width="24" height="24" viewBox="0 0 24 24" fill="none" xmlns="http://www.w3.org/2000/svg">
<path d="M11.293 4.29309C11.6835 3.90257 12.3165 3.90257 12.707 4.29309L19.707 11.2931C19.7548 11.3409 19.7976 11.3937 19.835 11.4503C19.8597 11.4878 19.8812 11.5267 19.9004 11.5665C19.9222 11.6117 19.9412 11.6585 19.9561 11.7072C19.9623 11.7274 19.9668 11.7481 19.9717 11.7687C19.9893 11.843 20 11.9204 20 12.0001C20 12.0831 19.9878 12.1632 19.9688 12.2404C19.9646 12.2573 19.9611 12.2744 19.9561 12.2911C19.9412 12.3401 19.9223 12.3872 19.9004 12.4327C19.8804 12.4744 19.8572 12.5147 19.8311 12.5538C19.8185 12.5727 19.8048 12.5906 19.791 12.6085C19.7649 12.6423 19.738 12.6762 19.707 12.7072L12.707 19.7072C12.3165 20.0976 11.6835 20.0976 11.293 19.7072C10.9025 19.3166 10.9025 18.6836 11.293 18.2931L16.5859 13.0001H5C4.44774 13.0001 4.00004 12.5524 4 12.0001C4 11.4478 4.44772 11.0001 5 11.0001H16.5859L11.293 5.70715C10.9025 5.31664 10.9025 4.68362 11.293 4.29309Z" fill="#0D0F1B"/>
</svg>
