<svg width="24" height="24" viewBox="0 0 24 24" fill="none" xmlns="http://www.w3.org/2000/svg">
<path d="M6.05099 7.05007C6.05099 6.49778 6.4986 6.05018 7.05088 6.05018H16.9504C16.9836 6.05018 17.0168 6.05103 17.0498 6.05432C17.1009 6.05936 17.1505 6.06952 17.199 6.08194C17.2751 6.10143 17.3492 6.12987 17.4199 6.16757C17.4283 6.17204 17.4366 6.17668 17.4448 6.18138C17.4893 6.20676 17.5322 6.23561 17.5732 6.26839C17.6291 6.31302 17.68 6.36347 17.7252 6.41892C17.7603 6.46195 17.7908 6.50728 17.8177 6.55427C17.8224 6.5625 17.827 6.57075 17.8315 6.57913C17.8693 6.64985 17.8975 6.72393 17.9171 6.8001C17.9221 6.81955 17.9278 6.8389 17.9316 6.85879C17.9438 6.92195 17.9503 6.98597 17.9503 7.05007V16.9496C17.95 17.5016 17.5025 17.9494 16.9504 17.9495C16.3982 17.9495 15.9507 17.5016 15.9505 16.9496V9.46418L7.75799 17.6567C7.36754 18.0469 6.73424 18.0468 6.34377 17.6567C5.95333 17.2662 5.95349 16.633 6.34377 16.2425L14.5363 8.04996H7.05088C6.49875 8.04996 6.05123 7.60215 6.05099 7.05007Z" fill="#0D0F1B"/>
</svg>
