<svg width="24" height="24" viewBox="0 0 24 24" fill="none" xmlns="http://www.w3.org/2000/svg">
<path d="M12.707 4.29303C12.3165 3.90251 11.6835 3.90251 11.293 4.29303L4.29297 11.293C4.24516 11.3408 4.20242 11.3936 4.16504 11.4503C4.1403 11.4877 4.11877 11.5267 4.09961 11.5665C4.07781 11.6117 4.05883 11.6584 4.04395 11.7071C4.03775 11.7274 4.0332 11.748 4.02832 11.7686C4.01068 11.843 4 11.9203 4 12.0001C4.00001 12.0831 4.01219 12.1632 4.03125 12.2403C4.03543 12.2572 4.03886 12.2743 4.04395 12.2911C4.05884 12.3401 4.07771 12.3872 4.09961 12.4327C4.11964 12.4743 4.14281 12.5146 4.16895 12.5538C4.18153 12.5726 4.19518 12.5905 4.20898 12.6085C4.23506 12.6423 4.26198 12.6761 4.29297 12.7071L11.293 19.7071C11.6835 20.0976 12.3165 20.0976 12.707 19.7071C13.0975 19.3166 13.0975 18.6836 12.707 18.293L7.41406 13.0001L19 13.0001C19.5523 13.0001 20 12.5523 20 12.0001C20 11.4478 19.5523 11.0001 19 11.0001L7.41406 11.0001L12.707 5.70709C13.0975 5.31658 13.0975 4.68356 12.707 4.29303Z" fill="#FFFACD"/>
</svg>
