<svg width="20" height="20" viewBox="0 0 20 20" fill="none" xmlns="http://www.w3.org/2000/svg">
<path d="M6.49121 13.575C6.79949 13.2667 7.36643 13.2668 7.6748 13.575C7.8248 13.7333 7.91699 13.9501 7.91699 14.1667C7.91697 14.3834 7.82479 14.6002 7.6748 14.7585C7.51649 14.9084 7.29958 14.9998 7.08301 14.9998C6.97478 14.9997 6.8665 14.975 6.7666 14.9333C6.66663 14.8917 6.57452 14.8335 6.49121 14.7585C6.3413 14.6002 6.25002 14.3833 6.25 14.1667C6.25 14.0586 6.27483 13.9502 6.31641 13.8503C6.35804 13.7421 6.41629 13.6499 6.49121 13.575Z" fill="white"/>
<path d="M9.4082 13.575C9.71653 13.2666 10.2835 13.2666 10.5918 13.575C10.6668 13.65 10.7249 13.742 10.7666 13.8503C10.8082 13.9503 10.833 14.0585 10.833 14.1667C10.833 14.3834 10.7418 14.6002 10.5918 14.7585C10.4335 14.9085 10.2166 14.9998 10 14.9998C9.78335 14.9998 9.56653 14.9085 9.4082 14.7585C9.25822 14.6002 9.16701 14.3834 9.16699 14.1667C9.16699 14.0585 9.1918 13.9503 9.2334 13.8503C9.27506 13.742 9.33321 13.65 9.4082 13.575Z" fill="white"/>
<path d="M12.3252 13.575C12.5169 13.3834 12.8086 13.292 13.0752 13.3503C13.1334 13.3587 13.1835 13.3752 13.2334 13.4001C13.2834 13.4168 13.3338 13.442 13.3838 13.4753C13.4253 13.5004 13.4673 13.5417 13.5088 13.575C13.6587 13.7333 13.75 13.9502 13.75 14.1667C13.75 14.3833 13.6587 14.6002 13.5088 14.7585C13.3505 14.9085 13.1335 14.9997 12.917 14.9998C12.7004 14.9998 12.4835 14.9084 12.3252 14.7585C12.2502 14.6835 12.1921 14.5915 12.1504 14.4832C12.1087 14.3832 12.083 14.2751 12.083 14.1667C12.083 14.0585 12.1088 13.9503 12.1504 13.8503C12.1921 13.742 12.2502 13.65 12.3252 13.575Z" fill="white"/>
<path d="M6.7666 10.4832C7.06659 10.3582 7.44149 10.4256 7.6748 10.6589C7.82464 10.8172 7.91688 11.0333 7.91699 11.2498C7.91699 11.2997 7.90872 11.3585 7.90039 11.4167C7.89206 11.4667 7.87461 11.5171 7.84961 11.5671C7.83298 11.6169 7.80851 11.6668 7.77539 11.7166C7.7504 11.7582 7.70813 11.7999 7.6748 11.8416C7.51647 11.9916 7.29967 12.0837 7.08301 12.0837C6.97478 12.0837 6.8665 12.058 6.7666 12.0164C6.65837 11.9747 6.57449 11.9165 6.49121 11.8416C6.34142 11.6833 6.25 11.4746 6.25 11.2498C6.25006 11.1416 6.27479 11.0332 6.31641 10.9333C6.35799 10.8335 6.41642 10.7421 6.49121 10.6589C6.57454 10.5839 6.65827 10.5248 6.7666 10.4832Z" fill="white"/>
<path d="M9.68359 10.4832C9.98349 10.35 10.3585 10.4248 10.5918 10.658C10.7417 10.8162 10.8329 11.0332 10.833 11.2498C10.833 11.2998 10.8247 11.3584 10.8164 11.4167C10.8081 11.4667 10.7916 11.5172 10.7666 11.5671C10.7499 11.617 10.7246 11.6667 10.6914 11.7166C10.6664 11.7582 10.6251 11.7999 10.5918 11.8416C10.4335 11.9916 10.2167 12.0837 10 12.0837C9.89171 12.0837 9.78356 12.058 9.68359 12.0164C9.57526 11.9747 9.49154 11.9166 9.4082 11.8416C9.25828 11.6832 9.16699 11.4747 9.16699 11.2498C9.16703 11.1415 9.19176 11.0333 9.2334 10.9333C9.27506 10.8334 9.33321 10.7413 9.4082 10.658C9.4915 10.583 9.57531 10.5248 9.68359 10.4832Z" fill="white"/>
<path d="M12.5996 10.4832C12.9079 10.3498 13.2755 10.4246 13.5088 10.658C13.6587 10.8162 13.7499 11.0332 13.75 11.2498C13.75 11.2998 13.7417 11.3584 13.7334 11.4167C13.7251 11.4667 13.7086 11.5172 13.6836 11.5671C13.6669 11.617 13.6416 11.6667 13.6084 11.7166C13.5835 11.7581 13.5421 11.8 13.5088 11.8416C13.3505 11.9915 13.1335 12.0836 12.917 12.0837C12.8087 12.0837 12.6996 12.058 12.5996 12.0164C12.4915 11.9747 12.4084 11.9164 12.3252 11.8416C12.2919 11.7999 12.2579 11.7582 12.2246 11.7166C12.1915 11.6668 12.167 11.6169 12.1504 11.5671C12.1254 11.5171 12.1079 11.4667 12.0996 11.4167C12.0913 11.3584 12.083 11.2998 12.083 11.2498C12.0831 11.0332 12.1753 10.8162 12.3252 10.658C12.4084 10.5832 12.4915 10.5248 12.5996 10.4832Z" fill="white"/>
<path fill-rule="evenodd" clip-rule="evenodd" d="M13.333 1.04175C13.6747 1.04175 13.958 1.32508 13.958 1.66675V2.31812C16.6133 2.54563 18.125 4.2568 18.125 7.08374V14.1667C18.125 17.2084 16.3747 18.9587 13.333 18.9587H6.66699C3.62533 18.9587 1.875 17.2084 1.875 14.1667V7.08374C1.875 4.2568 3.38667 2.54563 6.04199 2.31812V1.66675C6.04199 1.32508 6.32533 1.04175 6.66699 1.04175C7.00852 1.04192 7.29199 1.32518 7.29199 1.66675V2.29175H12.708V1.66675C12.708 1.32518 12.9915 1.04192 13.333 1.04175ZM3.125 8.19995V14.1667C3.125 16.5501 4.28366 17.7087 6.66699 17.7087H13.333C15.7163 17.7087 16.875 16.5501 16.875 14.1667V8.19995H3.125ZM7.29199 4.16675C7.29199 4.50831 7.00852 4.79158 6.66699 4.79175C6.32533 4.79175 6.04199 4.50841 6.04199 4.16675V3.57007C4.12133 3.75946 3.16778 4.8711 3.12891 6.94995H16.8711C16.8322 4.8711 15.8787 3.75946 13.958 3.57007V4.16675C13.958 4.50841 13.6747 4.79175 13.333 4.79175C12.9915 4.79158 12.708 4.50831 12.708 4.16675V3.54175H7.29199V4.16675Z" fill="white"/>
</svg>
