<svg width="16" height="16" viewBox="0 0 16 16" fill="none" xmlns="http://www.w3.org/2000/svg">
<path fill-rule="evenodd" clip-rule="evenodd" d="M8.18662 2.47711C8.06488 2.44166 7.93555 2.44166 7.81381 2.47711C7.77877 2.48732 7.71719 2.51285 7.58619 2.61203C7.44843 2.71634 7.27976 2.86562 7.01695 3.09922L3.52387 6.20419C3.09563 6.58484 2.97423 6.69962 2.88984 6.82657C2.80865 6.9487 2.74817 7.08339 2.71083 7.2252C2.67201 7.37262 2.66688 7.53961 2.66688 8.11257V11.4466C2.66688 12.0273 2.66742 12.422 2.69274 12.7269C2.7174 13.0239 2.76208 13.1755 2.817 13.2812C2.9435 13.5247 3.14206 13.7233 3.38558 13.8498C3.4913 13.9047 3.64289 13.9494 3.93985 13.9741C4.24479 13.9994 4.63953 13.9999 5.22021 13.9999H5.33355V11.9999C5.33355 10.5272 6.52745 9.33325 8.00021 9.33325C9.47297 9.33325 10.6669 10.5272 10.6669 11.9999V13.9999H10.7802C11.3609 13.9999 11.7556 13.9994 12.0606 13.9741C12.3575 13.9494 12.5091 13.9047 12.6148 13.8498C12.8584 13.7233 13.0569 13.5247 13.1834 13.2812C13.2383 13.1755 13.283 13.0239 13.3077 12.7269C13.333 12.422 13.3335 12.0273 13.3335 11.4466V8.11257C13.3335 7.53961 13.3284 7.37262 13.2896 7.2252C13.2523 7.08339 13.1918 6.9487 13.1106 6.82657C13.0262 6.69962 12.9048 6.58484 12.4766 6.20419L8.98347 3.09923C8.72066 2.86562 8.552 2.71634 8.41423 2.61203C8.28323 2.51285 8.22166 2.48732 8.18662 2.47711ZM7.44099 1.19696C7.80622 1.0906 8.19421 1.0906 8.55944 1.19696C8.81285 1.27076 9.02299 1.40055 9.21907 1.54901C9.40373 1.68882 9.61168 1.87368 9.85115 2.08655L13.3624 5.20764C13.3813 5.22445 13.3999 5.24102 13.4184 5.25738C13.7661 5.56619 14.0289 5.79948 14.221 6.08843C14.3833 6.33269 14.5043 6.60206 14.579 6.8857C14.6673 7.22123 14.6671 7.57258 14.6669 8.03767C14.6669 8.06231 14.6669 8.08728 14.6669 8.11257V11.4746C14.6669 12.0203 14.6669 12.4706 14.6364 12.8373C14.6048 13.2182 14.5369 13.5681 14.3666 13.8958C14.1136 14.3829 13.7165 14.78 13.2295 15.033C12.9017 15.2033 12.5518 15.2712 12.1709 15.3028C11.8043 15.3333 11.3539 15.3333 10.8082 15.3332H10.5369C10.5317 15.3332 10.5265 15.3333 10.5212 15.3333C10.4405 15.3333 10.344 15.3333 10.2591 15.3263C10.1607 15.3181 10.0197 15.2971 9.87257 15.2207C9.68993 15.1258 9.54101 14.9769 9.44614 14.7942C9.3697 14.6471 9.3487 14.5061 9.34052 14.4077C9.33347 14.3228 9.33351 14.2264 9.33354 14.1456L9.33355 11.9999C9.33355 11.2635 8.73659 10.6666 8.00021 10.6666C7.26383 10.6666 6.66688 11.2635 6.66688 11.9999L6.66688 14.1456C6.66692 14.2263 6.66695 14.3228 6.6599 14.4077C6.65172 14.5061 6.63073 14.6471 6.55429 14.7942C6.45942 14.9769 6.3105 15.1258 6.12785 15.2207C5.98071 15.2971 5.83977 15.3181 5.74131 15.3263C5.6564 15.3333 5.55997 15.3333 5.47923 15.3333C5.47393 15.3333 5.4687 15.3332 5.46355 15.3332H5.19223C4.64654 15.3333 4.19617 15.3333 3.8295 15.3028C3.4486 15.2712 3.09871 15.2033 2.77095 15.033C2.2839 14.78 1.88678 14.3829 1.63378 13.8958C1.46352 13.5681 1.39561 13.2182 1.36398 12.8373C1.33353 12.4706 1.33354 12.0203 1.33355 11.4746L1.33355 8.11257C1.33355 8.08728 1.33353 8.06231 1.33352 8.03767C1.33328 7.57258 1.3331 7.22123 1.42145 6.88569C1.49613 6.60206 1.61709 6.33269 1.77947 6.08843C1.97155 5.79948 2.23428 5.56619 2.58206 5.25738C2.60048 5.24102 2.61915 5.22445 2.63805 5.20764L6.14927 2.08656C6.38874 1.87368 6.59669 1.68882 6.78136 1.54901C6.97744 1.40055 7.18757 1.27076 7.44099 1.19696Z" fill="white"/>
</svg>
