<svg width="25" height="24" viewBox="0 0 25 24" fill="none" xmlns="http://www.w3.org/2000/svg">
<path fill-rule="evenodd" clip-rule="evenodd" d="M8.73044 3H15.9375C17.0396 2.99999 17.9284 2.99998 18.6478 3.05972C19.3886 3.12125 20.0389 3.25126 20.6389 3.56293C21.5521 4.03731 22.2967 4.78191 22.7711 5.69513C23.0827 6.29513 23.2127 6.94535 23.2743 7.68616C23.334 8.40556 23.334 9.29444 23.334 10.3965V13.6035C23.334 14.7056 23.334 15.5944 23.2743 16.3138C23.2127 17.0547 23.0827 17.7049 22.7711 18.3049C22.2967 19.2181 21.5521 19.9627 20.6389 20.4371C20.0389 20.7487 19.3886 20.8788 18.6478 20.9403C17.9284 21 17.0395 21 15.9375 21H8.73048C7.62842 21 6.73955 21 6.02015 20.9403C5.27933 20.8788 4.62912 20.7487 4.02911 20.4371C3.1159 19.9627 2.3713 19.2181 1.89692 18.3049C1.58524 17.7049 1.45523 17.0547 1.39371 16.3138C1.33397 15.5944 1.33397 14.7056 1.33398 13.6035V10.3965C1.33397 9.29442 1.33397 8.40556 1.39371 7.68616C1.45523 6.94535 1.58524 6.29513 1.89692 5.69513C2.3713 4.78191 3.1159 4.03731 4.02911 3.56293C4.62912 3.25126 5.27933 3.12125 6.02015 3.05972C6.73954 2.99998 7.62841 2.99999 8.73044 3ZM5.58672 5.1305C6.43537 5.32962 7.22316 5.7516 7.86416 6.36207L10.803 9.16092C11.2094 9.54798 11.4714 9.7965 11.6863 9.97018C11.8915 10.1361 11.9881 10.178 12.0415 10.1944C12.2321 10.2527 12.4358 10.2527 12.6264 10.1944C12.6799 10.178 12.7765 10.1361 12.9817 9.97018C13.1965 9.7965 13.4586 9.54798 13.865 9.16092L16.8038 6.36207C17.4448 5.7516 18.2326 5.32962 19.0812 5.1305C18.9132 5.09823 18.7168 5.07234 18.4823 5.05286C17.8554 5.0008 17.0498 5 15.894 5H8.77398C7.61822 5 6.81254 5.0008 6.18567 5.05286C5.95115 5.07234 5.75476 5.09823 5.58672 5.1305ZM21.1446 7H20.209C19.4547 7 18.7293 7.29015 18.1831 7.81035L15.2168 10.6355C14.8457 10.9888 14.5248 11.2945 14.2391 11.5255C13.9367 11.77 13.61 11.985 13.2114 12.1069C12.6395 12.2818 12.0285 12.2818 11.4566 12.1069C11.058 11.985 10.7313 11.77 10.4289 11.5255C10.1432 11.2945 9.82222 10.9888 9.45119 10.6354L6.48485 7.81035C5.93864 7.29015 5.21327 7 4.45898 7H3.5234C3.46257 7.21664 3.41702 7.48842 3.38685 7.85168C3.33479 8.47856 3.33398 9.28423 3.33398 10.44V13.56C3.33398 14.7158 3.33479 15.5214 3.38685 16.1483C3.43791 16.7632 3.53308 17.116 3.67174 17.3829C3.95637 17.9309 4.40313 18.3776 4.95106 18.6622C5.21801 18.8009 5.57076 18.8961 6.18567 18.9471C6.81254 18.9992 7.61822 19 8.77399 19H15.894C17.0498 19 17.8554 18.9992 18.4823 18.9471C19.0972 18.8961 19.45 18.8009 19.7169 18.6622C20.2648 18.3776 20.7116 17.9309 20.9962 17.3829C21.1349 17.116 21.2301 16.7632 21.2811 16.1483C21.3332 15.5214 21.334 14.7158 21.334 13.56V10.44C21.334 9.28423 21.3332 8.47856 21.2811 7.85168C21.251 7.48842 21.2054 7.21664 21.1446 7Z" fill="#0D0F1B"/>
</svg>
