<svg width="25" height="24" viewBox="0 0 25 24" fill="none" xmlns="http://www.w3.org/2000/svg">
<path d="M20.836 9.22991L6.83603 3.44991C6.3063 3.23069 5.72486 3.16785 5.16053 3.26882C4.5962 3.36979 4.07262 3.63034 3.65177 4.01963C3.23091 4.40891 2.93042 4.91064 2.78585 5.4654C2.64128 6.02016 2.65869 6.60473 2.83603 7.14991L4.37603 11.9999L2.79603 16.8499C2.6139 17.3973 2.59344 17.9855 2.7371 18.5442C2.88076 19.1029 3.18245 19.6083 3.60603 19.9999C4.15067 20.505 4.86331 20.79 5.60602 20.7999C6.00076 20.7996 6.39156 20.7215 6.75603 20.5699L20.806 14.7899C21.3532 14.5623 21.8207 14.1778 22.1496 13.6848C22.4785 13.1919 22.654 12.6125 22.654 12.0199C22.654 11.4273 22.4785 10.848 22.1496 10.355C21.8207 9.862 21.3532 9.47747 20.806 9.24991L20.836 9.22991ZM6.02603 18.6999C5.84963 18.7727 5.65609 18.7934 5.46826 18.7598C5.28044 18.7261 5.10617 18.6394 4.96603 18.5099C4.83401 18.3838 4.73906 18.2239 4.69146 18.0476C4.64386 17.8713 4.64544 17.6854 4.69603 17.5099L6.15602 12.9999H19.886L6.02603 18.6999ZM6.15602 10.9999L4.66602 6.52991C4.61544 6.35446 4.61386 6.16851 4.66146 5.99222C4.70906 5.81594 4.80401 5.65606 4.93602 5.52991C5.03013 5.43118 5.14344 5.35275 5.26898 5.29944C5.39452 5.24613 5.52964 5.21906 5.66602 5.21991C5.80007 5.22016 5.9327 5.24737 6.05602 5.29991L19.886 10.9999H6.15602Z" fill="#0D0F1B"/>
</svg>
