<svg width="20" height="20" viewBox="0 0 20 20" fill="none" xmlns="http://www.w3.org/2000/svg">
<path d="M14.3907 9.92581C14.4735 9.92603 14.5555 9.94245 14.6319 9.97463C14.7083 10.0069 14.778 10.054 14.836 10.1133C15.4842 10.7509 15.9985 11.5115 16.3487 12.3506C16.6988 13.1898 16.8778 14.0907 16.875 15C16.875 17.0298 13.3332 18.125 10 18.125C6.66691 18.125 3.12503 17.0298 3.12503 15C3.12237 14.0968 3.29904 13.2017 3.64456 12.3672C3.99002 11.5329 4.4976 10.7755 5.13772 10.1387C5.19549 10.0795 5.26471 10.0314 5.34085 9.99905C5.41681 9.96676 5.49855 9.94983 5.58108 9.94924C5.66383 9.94872 5.74673 9.9647 5.82327 9.99612C5.89971 10.0275 5.96893 10.0744 6.02737 10.1328C6.08582 10.1913 6.13268 10.2605 6.16409 10.3369C6.19546 10.4134 6.21144 10.4955 6.21097 10.5781C6.21044 10.6609 6.19258 10.7432 6.16019 10.8194C6.1278 10.8954 6.08069 10.9648 6.02151 11.0225C5.49787 11.5434 5.08244 12.1633 4.79983 12.8457C4.51725 13.5282 4.37293 14.2603 4.37503 14.999C4.37554 15.7642 6.56664 16.875 10 16.875C13.4338 16.875 15.625 15.7645 15.625 15C15.6272 14.2562 15.4807 13.5195 15.1944 12.833C14.9079 12.1465 14.4873 11.5237 13.9571 11.002C13.8972 10.9447 13.8495 10.8758 13.8164 10.7998C13.7833 10.7238 13.7648 10.6416 13.7637 10.5586C13.7626 10.4758 13.7786 10.3933 13.8096 10.3164C13.8406 10.2396 13.8861 10.1693 13.9444 10.1104C14.0027 10.0514 14.0729 10.0055 14.1494 9.97366C14.2259 9.94186 14.3078 9.9256 14.3907 9.92581Z" fill="white"/>
<path fill-rule="evenodd" clip-rule="evenodd" d="M8.3262 2.20803C9.12553 1.87702 10.005 1.79023 10.8535 1.95901C11.7022 2.12782 12.4819 2.54442 13.0938 3.15627C13.7056 3.76813 14.1222 4.54784 14.291 5.39651C14.4598 6.24504 14.373 7.12453 14.042 7.92385C13.7109 8.72327 13.1501 9.40699 12.4307 9.88772C11.7112 10.3685 10.8653 10.625 10 10.625C8.84012 10.6237 7.72841 10.162 6.90823 9.34182C6.08805 8.52164 5.62637 7.40993 5.62503 6.25002C5.62503 5.38473 5.8816 4.53883 6.36233 3.81936C6.84306 3.09991 7.52678 2.53916 8.3262 2.20803ZM10 3.12502C9.17153 3.126 8.37688 3.4552 7.79105 4.04104C7.20521 4.62688 6.87601 5.42152 6.87503 6.25002C6.87503 6.86808 7.05802 7.47245 7.4014 7.98635C7.74468 8.50011 8.23293 8.90019 8.80374 9.13674C9.37465 9.37322 10.0033 9.43594 10.6094 9.31545C11.2156 9.19488 11.773 8.89702 12.21 8.45999C12.647 8.02295 12.9449 7.46559 13.0655 6.8594C13.1859 6.25332 13.1232 5.62464 12.8867 5.05374C12.6502 4.48293 12.2501 3.99467 11.7364 3.65139C11.2225 3.30802 10.6181 3.12503 10 3.12502Z" fill="white"/>
</svg>
