<svg width="24" height="24" viewBox="0 0 24 24" fill="none" xmlns="http://www.w3.org/2000/svg">
<path fill-rule="evenodd" clip-rule="evenodd" d="M19.0058 0.994873C19.5581 0.994873 20.0058 1.44259 20.0058 1.99487V4.00008H22.011C22.5633 4.00008 23.011 4.4478 23.011 5.00008C23.011 5.55237 22.5633 6.00008 22.011 6.00008H20.0058V8.0053C20.0058 8.55758 19.5581 9.0053 19.0058 9.0053C18.4536 9.0053 18.0058 8.55758 18.0058 8.0053V6.00008H16.0006C15.4484 6.00008 15.0006 5.55237 15.0006 5.00008C15.0006 4.4478 15.4484 4.00008 16.0006 4.00008H18.0058V1.99487C18.0058 1.44259 18.4536 0.994873 19.0058 0.994873ZM8.40961 3.94118C7.73794 3.44605 7.28563 3.33426 7.04293 3.38163C6.04168 3.57703 5.44816 3.9668 4.64404 4.77091C3.54642 5.86851 3.01385 6.68808 3.24581 7.9307C3.51286 9.36137 4.81757 11.5449 8.41358 15.1409C12.0094 18.7367 14.2061 20.0552 15.6447 20.3278C16.3115 20.4542 16.8192 20.3554 17.2748 20.131C17.7619 19.8911 18.2309 19.4873 18.7688 18.9259C19.2459 18.428 19.5354 18.0805 19.7379 17.7386C19.9309 17.4129 20.0678 17.0528 20.1734 16.5119C20.2208 16.2692 20.1091 15.8169 19.6138 15.1451C19.152 14.5186 18.5004 13.8964 17.898 13.3884C17.5005 13.0533 16.8855 13.0319 16.3887 13.4038L14.8703 14.5405C13.5008 15.5657 11.5871 15.4188 10.3788 14.2105L9.344 13.1758C8.13569 11.9675 7.98884 10.0538 9.01407 8.6842L10.1507 7.16593C10.5226 6.66911 10.5012 6.05411 10.166 5.6566C9.65813 5.05434 9.036 4.40292 8.40961 3.94118ZM9.59634 2.33131C10.4058 2.92799 11.1448 3.71487 11.6949 4.36729C12.6978 5.55651 12.616 7.21001 11.7517 8.36449L10.6152 9.88277C10.1917 10.4484 10.2464 11.2498 10.7582 11.7616L11.793 12.7963C12.3048 13.3081 13.1061 13.3628 13.6718 12.9394L15.1901 11.8028C16.3446 10.9385 17.998 10.8567 19.1872 11.8594C19.8398 12.4096 20.6268 13.1487 21.2237 13.9583C21.7871 14.7226 22.354 15.781 22.1363 16.8953C21.9966 17.6109 21.7913 18.1965 21.4586 18.7581C21.1355 19.3035 20.7157 19.7848 20.2129 20.3096C19.6302 20.9177 18.966 21.5275 18.1585 21.9252C17.3195 22.3384 16.3714 22.5012 15.2723 22.2928C13.1793 21.8961 10.6044 20.1602 6.99937 16.5552C3.39455 12.9503 1.66968 10.3865 1.27976 8.29769C0.854751 6.0208 2.03783 4.54868 3.22983 3.35669C4.21442 2.37211 5.14803 1.7137 6.65985 1.41866C7.77398 1.20123 8.83219 1.76801 9.59634 2.33131Z" fill="#0D0F1B"/>
</svg>
