<svg width="17" height="16" viewBox="0 0 17 16" fill="none" xmlns="http://www.w3.org/2000/svg">
<path d="M8.07613 3.57713C8.31044 3.34282 8.68947 3.34282 8.92378 3.57713C9.15805 3.81145 9.15808 4.19049 8.92378 4.42479L5.34761 8.00096L8.92378 11.5771C9.15805 11.8115 9.15808 12.1905 8.92378 12.4248C8.68948 12.6591 8.31044 12.6591 8.07613 12.4248L4.07613 8.42479C3.84181 8.19048 3.84181 7.81145 4.07613 7.57713L8.07613 3.57713ZM12.0761 3.57713C12.3104 3.34282 12.6895 3.34282 12.9238 3.57713C13.1581 3.81145 13.1581 4.19049 12.9238 4.42479L9.34761 8.00096L12.9238 11.5771C13.1581 11.8115 13.1581 12.1905 12.9238 12.4248C12.6895 12.6591 12.3104 12.6591 12.0761 12.4248L8.07613 8.42479C7.84181 8.19048 7.84181 7.81145 8.07613 7.57713L12.0761 3.57713Z" fill="#0D0F1B"/>
</svg>
