<svg width="20" height="20" viewBox="0 0 20 20" fill="none" xmlns="http://www.w3.org/2000/svg">
<path d="M14.8891 5.05107C14.8891 5.34952 14.772 5.63575 14.5636 5.84678C14.3553 6.05781 14.0727 6.17637 13.778 6.17637C13.4833 6.17637 13.2007 6.05781 12.9924 5.84678C12.784 5.63575 12.667 5.34952 12.667 5.05107C12.667 4.75263 12.784 4.4664 12.9924 4.25537C13.2007 4.04433 13.4833 3.92578 13.778 3.92578C14.0727 3.92578 14.3553 4.04433 14.5636 4.25537C14.772 4.4664 14.8891 4.75263 14.8891 5.05107ZM8.67429 1.80841C9.21136 1.28969 9.92494 1.00021 10.6671 1H15.5548C15.8759 0.999882 16.1938 1.06383 16.4905 1.18819C16.7871 1.31255 17.0567 1.49489 17.2838 1.72478C17.5108 1.95468 17.691 2.22764 17.8139 2.52806C17.9367 2.82847 18 3.15047 18 3.47566V7.93454C18 8.32261 17.9238 8.7068 17.7757 9.06475C17.6277 9.4227 17.4109 9.74724 17.1378 10.0195L10.9639 16.1726C10.5883 16.5469 10.082 16.7559 9.55508 16.7542C9.02815 16.7525 8.52316 16.5403 8.14987 16.1636L2.58929 10.5587C2.40001 10.368 2.25036 10.1408 2.14918 9.8905C2.04799 9.64023 1.99731 9.37197 2.00013 9.10154C2.00294 8.83112 2.0592 8.564 2.16558 8.31595C2.27195 8.0679 2.4263 7.84393 2.61951 7.65726L8.67429 1.80841ZM10.668 2.35036C10.268 2.35036 9.88311 2.5061 9.59424 2.78607L3.53857 8.63402C3.4741 8.69627 3.42259 8.77098 3.38711 8.85373C3.35162 8.93648 3.33286 9.0256 3.33195 9.11581C3.33104 9.20602 3.34799 9.29551 3.3818 9.37898C3.41561 9.46245 3.46559 9.5382 3.52879 9.60178L9.09027 15.2067C9.21472 15.3321 9.38301 15.4027 9.55858 15.4032C9.73415 15.4037 9.90283 15.3341 10.028 15.2094L16.201 9.05713C16.3481 8.9106 16.465 8.73588 16.5448 8.54315C16.6246 8.35042 16.6658 8.14353 16.6659 7.93454V3.47566C16.6659 2.85449 16.1681 2.35036 15.5548 2.35036H10.668ZM17.7609 10.6614L16.4499 11.9676C16.4143 12.0168 16.3746 12.0633 16.3308 12.1071L11.5897 16.8145C11.0472 17.3558 10.3156 17.6583 9.55408 17.6561C8.79255 17.6539 8.06267 17.3472 7.52324 16.8028L5.80689 15.0707L3.6639 12.9228C3.62938 12.8894 3.59758 12.8533 3.56879 12.8147L2.11998 11.3554C1.97966 11.7921 1.96205 12.2598 2.0691 12.706C2.17615 13.1523 2.40366 13.5596 2.72617 13.8824L6.59796 17.7633C7.38593 18.5531 8.44898 18.9973 9.55755 19C10.6661 19.0027 11.7313 18.5637 12.523 17.7777L17.264 13.0704C17.5888 12.7479 17.8182 12.34 17.9265 11.8926C18.0349 11.4452 18.0178 10.9761 17.8773 10.538C17.8395 10.5798 17.8007 10.6206 17.7609 10.6605" fill="white"/>
</svg>
