<svg width="40" height="40" viewBox="0 0 40 40" fill="none" xmlns="http://www.w3.org/2000/svg">
<rect width="40" height="40" rx="20" fill="white"/>
<path d="M16.2578 14.5H20.0781C20.3808 14.5608 20.5015 14.6577 20.5674 14.7441C20.6477 14.8495 20.709 15.0198 20.7529 15.3389L20.7549 19.5557C20.7549 19.5559 20.7549 19.5584 20.7549 19.5605L20.7607 19.7051C20.7756 19.8606 20.8165 20.0303 20.8701 20.1768C20.9074 20.2785 20.959 20.3922 21.0293 20.4951C21.0936 20.5892 21.2101 20.728 21.3955 20.7998L21.4111 20.8057L21.4268 20.8105C21.4783 20.8266 21.5454 20.8418 21.623 20.8418C21.7628 20.8417 21.8734 20.7928 21.9375 20.7578C22.0056 20.7206 22.0622 20.6756 22.1045 20.6396C22.1871 20.5693 22.2667 20.4838 22.3174 20.4297L22.3164 20.4287L22.3564 20.3887L22.3555 20.3877C23.2278 19.4676 23.8573 18.3973 24.3477 17.4443L24.5498 17.0439C24.8172 16.5049 25.0493 15.9423 25.2559 15.4268C25.3364 15.2259 25.4314 15.1149 25.5234 15.0508C25.614 14.9879 25.7425 14.9417 25.9404 14.9414L25.9688 14.9424H25.9727L29.665 14.9443H29.666C29.7813 14.9443 29.8768 14.9481 29.9648 14.9629C30.0818 14.9826 30.1925 15.0087 30.2852 15.0508C30.3748 15.0915 30.426 15.1378 30.4561 15.1865C30.486 15.2352 30.5031 15.3003 30.499 15.3965C30.4948 15.4957 30.4696 15.6036 30.4346 15.7148C30.1527 16.5928 29.6198 17.3315 29.0488 18.1162L28.9883 18.1992C28.697 18.599 28.392 18.9986 28.0938 19.3896C27.7664 19.8188 27.4233 20.2691 27.0986 20.7197L27.0977 20.7207C26.8772 21.0278 26.6439 21.3878 26.6855 21.8037C26.7164 22.1113 26.8901 22.3642 27.0918 22.585L27.2988 22.7959C27.5056 22.9965 27.7201 23.1981 27.9238 23.3896C28.5015 23.9328 29.0729 24.4719 29.5732 25.0684C29.7821 25.3171 30.0008 25.5911 30.1914 25.8945L30.3711 26.208C30.5237 26.503 30.5111 26.7988 30.3926 27.0068C30.3017 27.1662 30.1593 27.2525 29.9971 27.2646H26.5986L26.5791 27.2666C25.8373 27.323 25.187 27.0733 24.5596 26.4395C24.2421 26.1188 23.9362 25.779 23.6318 25.4404V25.4395C23.4917 25.2836 23.3491 25.1256 23.2051 24.9688L23.2031 24.9668C23.048 24.7994 22.8291 24.5742 22.5596 24.3994L22.5576 24.3984L22.4316 24.3252C22.3189 24.267 22.1894 24.2193 22.0508 24.2051L21.9668 24.2012C21.9097 24.2012 21.76 24.2035 21.5889 24.3008C21.4279 24.3924 21.2957 24.5391 21.1885 24.7324V24.7334C20.887 25.2783 20.8319 25.8915 20.8096 26.3848C20.7886 26.8169 20.698 26.9862 20.6143 27.0674C20.5266 27.1523 20.3415 27.2426 19.8867 27.2646C19.6942 27.2736 19.5032 27.2783 19.3193 27.2783C17.6978 27.2783 16.3289 26.9362 15.1143 26.2461H15.1133C13.9542 25.5888 12.9312 24.6454 11.8926 23.248C10.3937 21.2284 9.07064 18.89 7.60254 15.6484V15.6475C7.45299 15.3174 7.50165 15.1783 7.53613 15.124H7.53711C7.57225 15.069 7.67946 14.9635 8.0459 14.957H8.04785C8.56823 14.9463 9.1019 14.9414 9.67773 14.9414C10.2044 14.9414 10.7571 14.9449 11.3672 14.9541V14.9551C11.7014 14.9607 11.9721 15.1329 12.1387 15.5371C12.6997 16.9095 13.3394 18.1303 14.0859 19.25L14.4121 19.7236C14.6614 20.0742 14.926 20.4355 15.3076 20.6953C15.4416 20.787 15.5685 20.8445 15.6895 20.8672L15.8086 20.8779C16.0043 20.8778 16.1383 20.7779 16.1953 20.7275C16.2593 20.671 16.304 20.6093 16.3311 20.5684C16.3861 20.4851 16.4238 20.4008 16.4385 20.3662C16.5554 20.0925 16.6171 19.7906 16.6475 19.4395C16.7485 18.267 16.7339 17.2811 16.5928 16.3477C16.5437 16.0216 16.4249 15.7187 16.2021 15.4785C15.9774 15.2363 15.6848 15.0989 15.3633 15.0381H15.3613C15.3387 15.0339 15.3197 15.0301 15.2988 15.0244C15.2955 15.0235 15.2922 15.0214 15.2891 15.0205C15.3037 15.0008 15.3202 14.983 15.3418 14.958L15.3438 14.9561C15.4861 14.7901 15.6067 14.6826 15.7354 14.6133C15.8582 14.5472 16.0174 14.5 16.2578 14.5Z" fill="#0D0F1B" stroke="#0D0F1B"/>
</svg>
