<svg width="24" height="24" viewBox="0 0 24 24" fill="none" xmlns="http://www.w3.org/2000/svg">
<path d="M12.707 19.7069C12.3165 20.0974 11.6835 20.0974 11.293 19.7069L4.29297 12.7069C4.24516 12.6591 4.20242 12.6063 4.16504 12.5497C4.1403 12.5122 4.11877 12.4733 4.09961 12.4335C4.07781 12.3883 4.05883 12.3415 4.04395 12.2928C4.03775 12.2726 4.0332 12.2519 4.02832 12.2313C4.01068 12.157 4 12.0796 4 11.9999C4.00001 11.9169 4.01219 11.8368 4.03125 11.7596C4.03543 11.7427 4.03886 11.7256 4.04395 11.7089C4.05884 11.6599 4.07771 11.6128 4.09961 11.5673C4.11964 11.5256 4.14281 11.4853 4.16895 11.4462C4.18153 11.4273 4.19518 11.4094 4.20898 11.3915C4.23506 11.3577 4.26198 11.3238 4.29297 11.2928L11.293 4.29285C11.6835 3.90237 12.3165 3.90237 12.707 4.29285C13.0975 4.68336 13.0975 5.31638 12.707 5.70691L7.41406 10.9999L19 10.9999C19.5523 10.9999 20 11.4476 20 11.9999C20 12.5522 19.5523 12.9999 19 12.9999L7.41406 12.9999L12.707 18.2928C13.0975 18.6834 13.0975 19.3164 12.707 19.7069Z" fill="#0D0F1B"/>
</svg>
