<svg width="610" height="196" viewBox="0 0 610 196" fill="none" xmlns="http://www.w3.org/2000/svg">
<g opacity="0.05">
<rect x="-120.344" y="0.655556" width="287.689" height="80.6889" stroke="white" stroke-opacity="0.3" stroke-width="1.31111"/>
<rect x="-120.344" y="82.6556" width="287.689" height="80.6889" stroke="white" stroke-opacity="0.3" stroke-width="1.31111"/>
<rect x="-120.344" y="164.656" width="287.689" height="80.6889" stroke="white" stroke-opacity="0.3" stroke-width="1.31111"/>
<rect x="-14.3444" y="0.655678" width="287.689" height="80.6889" stroke="white" stroke-opacity="0.3" stroke-width="1.31111"/>
<rect x="-14.3444" y="82.6556" width="287.689" height="80.6889" stroke="white" stroke-opacity="0.3" stroke-width="1.31111"/>
<rect x="-14.3444" y="164.656" width="287.689" height="80.6889" stroke="white" stroke-opacity="0.3" stroke-width="1.31111"/>
<rect x="91.6556" y="0.655678" width="287.689" height="80.6889" stroke="white" stroke-opacity="0.3" stroke-width="1.31111"/>
<rect x="91.6556" y="82.6556" width="287.689" height="80.6889" stroke="white" stroke-opacity="0.3" stroke-width="1.31111"/>
<rect x="91.6556" y="164.656" width="287.689" height="80.6889" stroke="white" stroke-opacity="0.3" stroke-width="1.31111"/>
<rect x="197.656" y="0.655678" width="287.689" height="80.6889" stroke="white" stroke-opacity="0.3" stroke-width="1.31111"/>
<rect x="197.656" y="82.6556" width="287.689" height="80.6889" stroke="white" stroke-opacity="0.3" stroke-width="1.31111"/>
<rect x="197.656" y="164.656" width="287.689" height="80.6889" stroke="white" stroke-opacity="0.3" stroke-width="1.31111"/>
<rect x="303.656" y="0.655678" width="287.689" height="80.6889" stroke="white" stroke-opacity="0.3" stroke-width="1.31111"/>
<rect x="303.656" y="82.6556" width="287.689" height="80.6889" stroke="white" stroke-opacity="0.3" stroke-width="1.31111"/>
<rect x="303.656" y="164.656" width="287.689" height="80.6889" stroke="white" stroke-opacity="0.3" stroke-width="1.31111"/>
<rect x="409.655" y="0.655678" width="287.689" height="80.6889" stroke="white" stroke-opacity="0.3" stroke-width="1.31111"/>
<rect x="409.655" y="82.6556" width="287.689" height="80.6889" stroke="white" stroke-opacity="0.3" stroke-width="1.31111"/>
<rect x="409.655" y="164.656" width="287.689" height="80.6889" stroke="white" stroke-opacity="0.3" stroke-width="1.31111"/>
<rect x="515.656" y="0.655678" width="287.689" height="80.6889" stroke="white" stroke-opacity="0.3" stroke-width="1.31111"/>
<rect x="515.656" y="82.6556" width="287.689" height="80.6889" stroke="white" stroke-opacity="0.3" stroke-width="1.31111"/>
<rect x="515.656" y="164.656" width="287.689" height="80.6889" stroke="white" stroke-opacity="0.3" stroke-width="1.31111"/>
</g>
</svg>
