<svg width="732" height="475" viewBox="0 0 732 475" fill="none" xmlns="http://www.w3.org/2000/svg">
<g opacity="0.05">
<rect x="0.632606" y="-194.059" width="90.1255" height="247.102" stroke="white" stroke-opacity="0.3" stroke-width="1.31111"/>
<rect x="0.632606" y="54.3536" width="90.1255" height="247.102" stroke="white" stroke-opacity="0.3" stroke-width="1.31111"/>
<rect x="0.632606" y="302.766" width="90.1255" height="247.102" stroke="white" stroke-opacity="0.3" stroke-width="1.31111"/>
<rect x="92.0696" y="-194.059" width="90.1255" height="247.102" stroke="white" stroke-opacity="0.3" stroke-width="1.31111"/>
<rect x="92.0696" y="54.3536" width="90.1255" height="247.102" stroke="white" stroke-opacity="0.3" stroke-width="1.31111"/>
<rect x="92.0696" y="302.766" width="90.1255" height="247.102" stroke="white" stroke-opacity="0.3" stroke-width="1.31111"/>
<rect x="183.507" y="-194.059" width="90.1255" height="247.102" stroke="white" stroke-opacity="0.3" stroke-width="1.31111"/>
<rect x="183.507" y="54.3536" width="90.1255" height="247.102" stroke="white" stroke-opacity="0.3" stroke-width="1.31111"/>
<rect x="183.507" y="302.766" width="90.1255" height="247.102" stroke="white" stroke-opacity="0.3" stroke-width="1.31111"/>
<rect x="274.943" y="-194.059" width="90.1255" height="247.102" stroke="white" stroke-opacity="0.3" stroke-width="1.31111"/>
<rect x="274.943" y="54.3536" width="90.1255" height="247.102" stroke="white" stroke-opacity="0.3" stroke-width="1.31111"/>
<rect x="274.943" y="302.766" width="90.1255" height="247.102" stroke="white" stroke-opacity="0.3" stroke-width="1.31111"/>
<rect x="366.379" y="-194.059" width="90.1255" height="247.102" stroke="white" stroke-opacity="0.3" stroke-width="1.31111"/>
<rect x="366.379" y="54.3536" width="90.1255" height="247.102" stroke="white" stroke-opacity="0.3" stroke-width="1.31111"/>
<rect x="366.379" y="302.766" width="90.1255" height="247.102" stroke="white" stroke-opacity="0.3" stroke-width="1.31111"/>
<rect x="457.816" y="-194.059" width="90.1255" height="247.102" stroke="white" stroke-opacity="0.3" stroke-width="1.31111"/>
<rect x="457.816" y="54.3536" width="90.1255" height="247.102" stroke="white" stroke-opacity="0.3" stroke-width="1.31111"/>
<rect x="457.816" y="302.766" width="90.1255" height="247.102" stroke="white" stroke-opacity="0.3" stroke-width="1.31111"/>
<rect x="549.252" y="-194.059" width="90.1255" height="247.102" stroke="white" stroke-opacity="0.3" stroke-width="1.31111"/>
<rect x="549.252" y="54.3536" width="90.1255" height="247.102" stroke="white" stroke-opacity="0.3" stroke-width="1.31111"/>
<rect x="549.252" y="302.766" width="90.1255" height="247.102" stroke="white" stroke-opacity="0.3" stroke-width="1.31111"/>
<rect x="640.689" y="-194.059" width="90.1255" height="247.102" stroke="white" stroke-opacity="0.3" stroke-width="1.31111"/>
<rect x="640.689" y="54.3536" width="90.1255" height="247.102" stroke="white" stroke-opacity="0.3" stroke-width="1.31111"/>
<rect x="640.689" y="302.766" width="90.1255" height="247.102" stroke="white" stroke-opacity="0.3" stroke-width="1.31111"/>
</g>
</svg>
