<svg width="1244" height="463" viewBox="0 0 1244 463" fill="none" xmlns="http://www.w3.org/2000/svg">
<g opacity="0.1">
<rect x="-9.67648" y="-32.4553" width="207.356" height="172.578" stroke="white" stroke-opacity="0.1" stroke-width="1.31111"/>
<rect x="-9.67648" y="141.433" width="207.356" height="172.578" stroke="white" stroke-opacity="0.1" stroke-width="1.31111"/>
<rect x="-9.67648" y="315.322" width="207.356" height="172.578" stroke="white" stroke-opacity="0.1" stroke-width="1.31111"/>
<rect x="198.988" y="-32.4553" width="207.356" height="172.578" stroke="white" stroke-opacity="0.1" stroke-width="1.31111"/>
<rect x="198.988" y="141.433" width="207.356" height="172.578" stroke="white" stroke-opacity="0.1" stroke-width="1.31111"/>
<rect x="198.988" y="315.322" width="207.356" height="172.578" stroke="white" stroke-opacity="0.1" stroke-width="1.31111"/>
<rect x="407.656" y="-32.4553" width="207.356" height="172.578" stroke="white" stroke-opacity="0.1" stroke-width="1.31111"/>
<rect x="407.656" y="141.433" width="207.356" height="172.578" stroke="white" stroke-opacity="0.1" stroke-width="1.31111"/>
<rect x="407.656" y="315.322" width="207.356" height="172.578" stroke="white" stroke-opacity="0.1" stroke-width="1.31111"/>
<rect x="616.32" y="-32.4553" width="207.356" height="172.578" stroke="white" stroke-opacity="0.1" stroke-width="1.31111"/>
<rect x="616.32" y="141.433" width="207.356" height="172.578" stroke="white" stroke-opacity="0.1" stroke-width="1.31111"/>
<rect x="616.32" y="315.322" width="207.356" height="172.578" stroke="white" stroke-opacity="0.1" stroke-width="1.31111"/>
<rect x="824.988" y="-32.4553" width="207.356" height="172.578" stroke="white" stroke-opacity="0.1" stroke-width="1.31111"/>
<rect x="824.988" y="141.433" width="207.356" height="172.578" stroke="white" stroke-opacity="0.1" stroke-width="1.31111"/>
<rect x="824.988" y="315.322" width="207.356" height="172.578" stroke="white" stroke-opacity="0.1" stroke-width="1.31111"/>
<rect x="1033.66" y="-32.4553" width="207.356" height="172.578" stroke="white" stroke-opacity="0.1" stroke-width="1.31111"/>
<rect x="1033.66" y="141.433" width="207.356" height="172.578" stroke="white" stroke-opacity="0.1" stroke-width="1.31111"/>
<rect x="1033.66" y="315.322" width="207.356" height="172.578" stroke="white" stroke-opacity="0.1" stroke-width="1.31111"/>
<rect x="1242.32" y="-32.4553" width="207.356" height="172.578" stroke="white" stroke-opacity="0.1" stroke-width="1.31111"/>
<rect x="1242.32" y="141.433" width="207.356" height="172.578" stroke="white" stroke-opacity="0.1" stroke-width="1.31111"/>
<rect x="1242.32" y="315.322" width="207.356" height="172.578" stroke="white" stroke-opacity="0.1" stroke-width="1.31111"/>
</g>
</svg>
