<svg width="24" height="24" viewBox="0 0 24 24" fill="none" xmlns="http://www.w3.org/2000/svg">
<path fill-rule="evenodd" clip-rule="evenodd" d="M8.40912 3.94118C7.73745 3.44605 7.28514 3.33427 7.04244 3.38163C6.04119 3.57703 5.44767 3.9668 4.64355 4.77091C3.54593 5.86851 3.01336 6.68808 3.24532 7.9307C3.51237 9.36137 4.81708 11.5449 8.41309 15.1409C12.0089 18.7367 14.2056 20.0552 15.6443 20.3278C16.311 20.4542 16.8187 20.3554 17.2743 20.131C17.7614 19.8911 18.2304 19.4873 18.7683 18.9259C19.2454 18.428 19.5349 18.0805 19.7375 17.7386C19.9304 17.4129 20.0673 17.0528 20.1729 16.5119C20.2203 16.2692 20.1086 15.8169 19.6133 15.1451C19.1515 14.5186 18.4999 13.8964 17.8975 13.3885C17.5 13.0533 16.885 13.0319 16.3882 13.4038L14.8698 14.5405C13.5003 15.5657 11.5866 15.4188 10.3783 14.2105L9.34351 13.1758C8.13521 11.9675 7.98835 10.0538 9.01359 8.6842L10.1502 7.16593C10.5221 6.66912 10.5007 6.05411 10.1655 5.65661C9.65764 5.05434 9.03551 4.40292 8.40912 3.94118ZM9.59585 2.33131C10.4053 2.92799 11.1443 3.71487 11.6945 4.36729C12.6973 5.55651 12.6155 7.21001 11.7512 8.36449L10.6147 9.88277C10.1912 10.4484 10.2459 11.2498 10.7577 11.7616L11.7925 12.7963C12.3043 13.3081 13.1056 13.3628 13.6713 12.9394L15.1896 11.8028C16.3441 10.9385 17.9975 10.8567 19.1867 11.8594C19.8393 12.4096 20.6263 13.1487 21.2232 13.9583C21.7866 14.7226 22.3535 15.781 22.1358 16.8953C21.9961 17.6109 21.7908 18.1965 21.4581 18.7581C21.135 19.3035 20.7152 19.7849 20.2124 20.3096C19.6297 20.9177 18.9655 21.5275 18.158 21.9252C17.3191 22.3384 16.3709 22.5012 15.2718 22.2928C13.1788 21.8961 10.6039 20.1602 6.99888 16.5552C3.39407 12.9503 1.66919 10.3865 1.27928 8.29769C0.854262 6.02081 2.03734 4.54868 3.22934 3.35669C4.21393 2.37211 5.14754 1.7137 6.65936 1.41866C7.77349 1.20123 8.8317 1.76801 9.59585 2.33131Z" fill="white"/>
</svg>
